<svg width="20" height="17" viewBox="0 0 20 17" fill="none" xmlns="http://www.w3.org/2000/svg">
<path d="M15.0854 15.8246C12.7261 17.1148 9.4971 17.2476 6.2281 15.9194C3.58891 14.8569 1.39957 12.9974 0 10.8723C0.669796 11.3941 1.45956 11.821 2.2993 12.2005C5.66827 13.69 9.02725 13.5856 11.3965 12.2005C8.02755 9.7433 5.15843 6.54613 3.02908 3.93717C2.57921 3.51025 2.24931 2.97896 1.90942 2.50461C10.1869 8.24433 9.82701 9.70535 4.31868 1.54641C9.20719 6.23306 13.7458 8.88946 13.7458 8.88946C13.9058 8.97484 13.9957 9.04125 14.1057 9.09818C14.2057 8.861 14.2956 8.61433 14.3656 8.35818C15.1554 5.65434 14.2557 2.55204 12.2863 0C16.8349 2.60897 19.534 7.50433 18.4044 11.6123C18.3744 11.7166 18.3444 11.821 18.3544 11.9823C20.5937 14.6671 19.9939 17.4658 19.704 16.9346C18.4944 14.6671 16.2251 15.3692 15.0854 15.8246Z" fill="black"/>
</svg>
